<svg width="36" height="38" viewBox="0 0 36 38" fill="none" xmlns="http://www.w3.org/2000/svg">
<path d="M0.5 33.5V3.5C0.5 1.56701 2.067 1.90735e-06 4 1.90735e-06C5.933 1.90735e-06 7.5 1.56701 7.5 3.5V33.5C7.5 35.433 5.933 37 4 37C2.067 37 0.5 35.433 0.5 33.5Z" fill="#813746"/>
<path d="M29.7754 2.56878C25.5125 -0.215006 18.8015 -0.177577 14.8076 0.15553C12.8815 0.316169 11.5 1.96593 11.5 3.89868V4.46865C11.5 6.68091 13.2957 8.47306 15.508 8.46864L21.6104 8.45645C23.7893 8.4521 25.558 10.2172 25.558 12.3962C25.558 14.572 23.7941 16.3359 21.6183 16.3359H15.5C13.2909 16.3359 11.5 18.1267 11.5 20.3359V20.9626C11.5 22.8609 12.834 24.4924 14.7203 24.7057C19.1322 25.2045 26.9855 25.4831 31.1812 21.9732C37.92 16.3359 36.2508 6.79733 29.7754 2.56878Z" fill="#813746"/>
<path d="M35.5 32C35.5 34.7614 33.2614 37 30.5 37C27.7386 37 25.5 34.7614 25.5 32C25.5 29.2386 27.7386 27 30.5 27C33.2614 27 35.5 29.2386 35.5 32Z" fill="#222222"/>
</svg>
